<?xml version="1.0" standalone="no"?>
<!DOCTYPE svg PUBLIC "-//W3C//DTD SVG 20010904//EN"
 "http://www.w3.org/TR/2001/REC-SVG-20010904/DTD/svg10.dtd">
<svg version="1.0" xmlns="http://www.w3.org/2000/svg"
 width="500.000000pt" height="500.000000pt" viewBox="0 0 500.000000 500.000000"
 preserveAspectRatio="xMidYMid meet">

<g transform="translate(0.000000,500.000000) scale(0.100000,-0.100000)"
fill="#000000" stroke="none">
<path d="M3067 4420 c-51 -13 -126 -53 -160 -85 -48 -46 -71 -93 -192 -390
-65 -160 -160 -393 -212 -520 -52 -126 -132 -322 -178 -435 -46 -113 -127
-311 -180 -440 -53 -129 -131 -318 -172 -420 -41 -102 -152 -372 -246 -600
-230 -560 -230 -559 -224 -643 12 -177 148 -309 322 -311 152 -2 263 77 328
229 9 22 53 130 98 240 44 110 157 385 249 610 190 466 372 909 488 1195 44
107 147 359 230 560 252 615 246 599 250 670 8 141 -84 280 -217 326 -55 19
-138 25 -184 14z"/>
<path d="M1205 3777 c-22 -7 -58 -22 -80 -34 -23 -12 -264 -246 -552 -535
-485 -486 -514 -517 -544 -583 -27 -60 -30 -77 -27 -135 9 -135 -3 -121 571
-697 593 -595 573 -578 722 -577 59 0 92 5 127 21 62 28 134 96 166 158 24 44
27 61 27 150 0 86 -3 106 -24 145 -15 29 -153 175 -397 420 -206 207 -374 382
-374 390 0 8 170 186 379 395 356 357 380 384 401 440 30 82 25 197 -12 270
-32 62 -103 130 -166 157 -56 25 -161 32 -217 15z"/>
<path d="M3614 3775 c-96 -30 -166 -94 -210 -188 -24 -53 -26 -68 -22 -145 3
-64 10 -99 27 -132 16 -30 145 -167 397 -420 206 -207 374 -382 374 -390 0 -8
-168 -183 -374 -390 -244 -245 -382 -391 -397 -420 -21 -39 -24 -59 -24 -145
0 -89 3 -106 27 -150 89 -170 296 -232 461 -139 24 13 269 251 558 541 580
583 564 562 564 703 0 140 15 121 -554 694 -278 279 -528 523 -556 540 -86 55
-180 70 -271 41z"/>
</g>
</svg>
